<?xml version="1.0" standalone="no"?>
<!DOCTYPE svg PUBLIC "-//W3C//DTD SVG 20010904//EN"
 "http://www.w3.org/TR/2001/REC-SVG-20010904/DTD/svg10.dtd">
<svg version="1.0" xmlns="http://www.w3.org/2000/svg"
 width="709.000000pt" height="709.000000pt" viewBox="0 0 709.000000 709.000000"
 preserveAspectRatio="xMidYMid meet">
<metadata>
Created by potrace 1.11, written by Peter Selinger 2001-2013
</metadata>
<g transform="translate(0.000000,709.000000) scale(0.100000,-0.100000)"
fill="#000000" stroke="none">
<path d="M3400 7046 c-69 -24 -141 -49 -160 -56 -19 -6 -44 -15 -55 -20 -11
-5 -76 -27 -145 -50 -69 -23 -134 -45 -145 -50 -11 -4 -49 -18 -85 -30 -105
-36 -233 -81 -255 -90 -11 -5 -54 -20 -95 -34 -137 -46 -225 -77 -245 -85 -11
-5 -49 -19 -85 -31 -36 -12 -74 -26 -85 -30 -11 -4 -49 -18 -85 -30 -36 -12
-74 -26 -85 -30 -11 -5 -54 -20 -95 -34 -41 -14 -133 -46 -205 -72 -71 -25
-143 -50 -160 -56 -16 -5 -39 -13 -50 -18 -11 -4 -49 -18 -85 -30 -36 -12 -74
-26 -85 -30 -11 -5 -38 -14 -60 -20 -22 -6 -49 -15 -60 -20 -11 -4 -49 -18
-85 -30 -36 -12 -74 -26 -85 -30 -11 -4 -49 -18 -85 -30 -36 -12 -74 -26 -85
-30 -11 -4 -49 -18 -85 -30 -36 -12 -74 -26 -85 -30 -11 -4 -49 -18 -85 -30
-36 -12 -74 -26 -85 -30 -11 -5 -55 -20 -97 -35 -108 -38 -107 -37 -97 -115
10 -81 38 -310 45 -370 3 -25 9 -79 15 -120 5 -41 18 -157 29 -258 11 -101 21
-186 24 -190 2 -4 7 -50 11 -102 4 -52 9 -98 12 -103 2 -4 11 -67 19 -140 15
-144 40 -351 48 -407 3 -19 11 -78 17 -130 5 -52 17 -147 24 -210 8 -63 18
-158 24 -210 6 -52 15 -124 21 -160 5 -36 14 -108 20 -160 10 -94 24 -216 54
-460 17 -136 39 -319 61 -500 8 -63 21 -173 30 -245 18 -148 42 -345 54 -454
9 -79 21 -96 86 -123 17 -6 32 -14 35 -17 6 -7 73 -44 155 -86 33 -16 62 -33
65 -36 3 -3 39 -23 80 -45 41 -21 77 -42 78 -46 2 -5 8 -8 13 -8 5 0 51 -23
101 -52 51 -28 111 -61 133 -73 22 -12 83 -46 135 -75 52 -29 122 -67 155 -84
33 -17 62 -33 65 -36 6 -6 13 -10 125 -70 44 -24 119 -65 168 -91 48 -27 92
-49 97 -49 6 0 10 -4 10 -8 0 -4 12 -13 28 -19 15 -6 56 -28 92 -49 36 -20 90
-50 120 -66 30 -17 80 -44 110 -60 30 -17 73 -40 95 -52 22 -11 42 -23 45 -26
3 -3 16 -11 30 -17 14 -7 54 -29 90 -49 36 -20 92 -51 125 -69 33 -18 89 -49
125 -69 36 -20 76 -42 90 -49 14 -6 27 -14 30 -17 3 -3 21 -13 40 -22 19 -10
62 -33 95 -51 210 -117 214 -118 250 -93 18 12 71 41 185 102 19 11 37 21 40
24 3 3 23 14 45 26 75 39 277 150 325 178 19 12 58 32 85 46 28 14 52 28 53
33 2 4 8 7 12 7 5 0 32 14 60 30 47 28 119 67 210 116 19 11 37 21 40 24 3 3
21 13 40 24 19 10 64 34 100 54 36 19 90 49 120 65 30 16 60 33 65 37 6 4 46
27 90 50 44 24 103 55 130 71 28 15 66 35 85 45 19 11 37 21 40 24 3 3 21 13
40 24 19 10 62 33 95 51 33 18 76 41 95 51 19 11 37 21 40 24 5 5 59 35 125
69 16 9 32 18 35 21 3 3 20 13 38 22 56 30 185 100 237 130 28 16 61 34 75 41
14 6 27 14 30 17 5 5 13 9 150 83 102 54 106 58 109 119 1 28 4 56 7 60 3 5
12 68 20 141 28 246 43 372 47 392 3 11 8 58 12 105 4 47 9 94 12 105 2 11 9
61 14 110 5 50 11 106 14 125 7 53 33 262 45 370 6 52 13 111 16 130 2 19 11
89 19 155 14 116 32 273 55 460 6 50 13 106 15 125 3 19 12 91 20 160 14 113
35 293 50 410 3 25 10 83 16 130 5 47 16 139 24 205 9 66 24 199 35 295 28
253 48 422 53 445 3 11 8 56 12 100 4 44 9 91 11 105 2 14 7 43 9 65 3 22 8
59 11 81 l5 41 -63 23 c-149 53 -201 71 -348 120 -85 28 -164 55 -175 60 -30
13 -251 89 -320 110 -33 10 -118 39 -190 64 -282 98 -576 199 -690 237 -66 22
-129 44 -140 49 -11 5 -74 27 -140 49 -269 90 -361 122 -380 131 -11 5 -137
48 -280 95 -143 48 -269 90 -280 95 -11 5 -69 25 -130 45 -60 20 -119 40 -130
45 -26 11 -86 30 -94 30 -3 0 -62 -20 -131 -44z"/>
</g>
</svg>
