<?xml version="1.0" encoding="iso-8859-1"?>
<!-- Generator: Adobe Illustrator 16.0.0, SVG Export Plug-In . SVG Version: 6.00 Build 0)  -->
<!DOCTYPE svg PUBLIC "-//W3C//DTD SVG 1.1//EN" "http://www.w3.org/Graphics/SVG/1.1/DTD/svg11.dtd">
<svg version="1.1" id="Capa_1" xmlns="http://www.w3.org/2000/svg" xmlns:xlink="http://www.w3.org/1999/xlink" x="0px" y="0px"
	 width="586.5px" height="586.5px" viewBox="0 0 586.5 586.5" style="enable-background:new 0 0 586.5 586.5;" xml:space="preserve"
	>
<g>
	<g id="Layer_1_63_">
		<g>
			<path d="M186.769,76.5h215.475V14.025c0-7.65-6.375-14.025-14.025-14.025h-216.75c-5.1,0-10.2,2.55-12.75,7.65
				c-2.55,5.1-2.55,12.75,0,17.85L186.769,76.5z"/>
			<path d="M171.469,178.5h24.225c1.275,56.1,47.175,100.725,103.274,100.725c56.101,0,102-44.625,103.275-100.725l0,0v-63.75
				H186.769l-26.775,45.9c-2.55,3.825-2.55,6.375,0,11.475C162.543,175.95,166.369,178.5,171.469,178.5z"/>
			<path d="M407.343,320.025L209.719,586.5h253.725c7.649,0,14.024-6.375,14.024-14.025v-165.75
				C478.744,364.65,448.144,328.95,407.343,320.025z"/>
			<path d="M196.969,318.75c-48.45,0-87.975,39.525-87.975,87.975V571.2c0,7.649,6.375,14.024,14.025,14.024h24.225l198.9-267.75
				H196.969V318.75z"/>
		</g>
	</g>
</g>
<g>
</g>
<g>
</g>
<g>
</g>
<g>
</g>
<g>
</g>
<g>
</g>
<g>
</g>
<g>
</g>
<g>
</g>
<g>
</g>
<g>
</g>
<g>
</g>
<g>
</g>
<g>
</g>
<g>
</g>
</svg>
