<?xml version="1.0" encoding="iso-8859-1"?>
<!-- Generator: Adobe Illustrator 17.1.0, SVG Export Plug-In . SVG Version: 6.00 Build 0)  -->
<!DOCTYPE svg PUBLIC "-//W3C//DTD SVG 1.1//EN" "http://www.w3.org/Graphics/SVG/1.1/DTD/svg11.dtd">
<svg version="1.1" id="Capa_1" xmlns="http://www.w3.org/2000/svg" xmlns:xlink="http://www.w3.org/1999/xlink" x="0px" y="0px"
	 viewBox="0 0 297.334 297.334" style="enable-background:new 0 0 297.334 297.334;" xml:space="preserve">
<g>
	<path d="M255.5,0h-213c-4.418,0-8.333,3.582-8.333,8v223c0,2.923,1.76,5.612,4.324,7.017l106.583,58.334
		c1.196,0.655,2.561,0.983,3.884,0.983c1.323,0,2.667-0.328,3.864-0.983l106.344-58.334c2.564-1.404,4.001-4.094,4.001-7.017V8
		C263.167,3.582,259.918,0,255.5,0z M247.167,226.261l-98.5,53.952l-98.5-53.952V16h197V226.261z"/>
	<polygon points="215.167,209.092 215.167,171.5 148.751,206.5 82.167,171.5 82.167,209.001 148.75,245.334 	"/>
	<polygon points="215.167,153.438 215.167,115.846 148.751,150.846 82.167,115.846 82.167,153.347 148.75,189.68 	"/>
	<polygon points="122.753,115.683 149.499,96.263 176.247,115.723 166.032,84.33 192.778,65 159.718,65 149.499,33.557 139.282,65 
		106.222,65 132.968,84.336 	"/>
</g>
<g>
</g>
<g>
</g>
<g>
</g>
<g>
</g>
<g>
</g>
<g>
</g>
<g>
</g>
<g>
</g>
<g>
</g>
<g>
</g>
<g>
</g>
<g>
</g>
<g>
</g>
<g>
</g>
<g>
</g>
</svg>
