<?xml version="1.0" encoding="iso-8859-1"?>
<!-- Generator: Adobe Illustrator 18.1.1, SVG Export Plug-In . SVG Version: 6.00 Build 0)  -->
<svg version="1.1" id="Capa_1" xmlns="http://www.w3.org/2000/svg" xmlns:xlink="http://www.w3.org/1999/xlink" x="0px" y="0px"
	 viewBox="0 0 25.703 25.703" style="enable-background:new 0 0 25.703 25.703;" xml:space="preserve">
<g>
	<g>
		<path style="fill:#030104;" d="M20.991,13.32v-0.227c0-0.219-0.088-0.413-0.218-0.57c-0.046-0.259-0.076-0.531-0.138-0.776
			c-0.014-0.056-0.049-0.1-0.073-0.15c0.162-0.188,0.258-0.347,0.258-0.45c0,0-2.521-1.205-7.957-1.205s-7.959,1.205-7.959,1.205
			c0,0.102,0.094,0.258,0.252,0.443c-0.011,0.029-0.032,0.051-0.04,0.081c-0.07,0.264-0.104,0.559-0.155,0.841
			c-0.135,0.158-0.225,0.356-0.225,0.58v0.212c-1.054,0.466-1.773,1.708-1.773,3.255c0,1.685,1.613,3.13,2.863,3.59
			c1.171,3.893,5.436,5.554,7.037,5.554c1.596,0,5.843-1.651,7.027-5.521c1.39-0.441,2.873-2.018,2.873-3.624
			C22.763,15.072,22.022,13.806,20.991,13.32z M19.163,18.504c-0.425,0-0.792,0.298-0.881,0.714
			c-0.693,3.275-4.352,4.685-5.419,4.685s-4.726-1.41-5.419-4.688c-0.082-0.388-0.477-0.679-0.872-0.713
			c-0.405-0.036-1.809-1.023-1.809-1.943c0-0.419,0.086-0.775,0.215-1.052c0.165,0.18,0.397,0.296,0.66,0.296
			c0.499,0,0.903-0.404,0.903-0.903v-0.764c0.004-0.028,0.019-0.052,0.021-0.081c0.025-0.429,0.08-0.832,0.149-1.222
			c1.484,0.927,3.729,1.86,6.153,1.86c2.425,0,4.67-0.934,6.154-1.862c0.069,0.391,0.124,0.795,0.148,1.222
			c0.002,0.028,0.016,0.05,0.02,0.077v0.769c0,0.499,0.404,0.903,0.903,0.903c0.255,0,0.483-0.107,0.647-0.277
			c0.133,0.274,0.228,0.622,0.228,1.033C20.963,17.466,19.685,18.504,19.163,18.504z"/>
		<circle style="fill:#030104;" cx="16.363" cy="16.333" r="1.463"/>
		<circle style="fill:#030104;" cx="9.363" cy="16.333" r="1.462"/>
		<path style="fill:#030104;" d="M12.913,8.691c5.574,0,7.95,0.98,7.95,0.98c0-1.78,3.932-4.775,2.703-4.775
			C16.722,4.896,15.296,0,12.861,0C10.425,0,9.853,4.896,2.207,4.896c-1.24,0,1.656,2.962,1.656,4.775
			C3.863,9.671,7.339,8.691,12.913,8.691z M10.863,3.833h4c0,0,0,1,0,2s-2,2-2,2s-2-1-2-2S10.863,3.833,10.863,3.833z"/>
	</g>
</g>
<g>
</g>
<g>
</g>
<g>
</g>
<g>
</g>
<g>
</g>
<g>
</g>
<g>
</g>
<g>
</g>
<g>
</g>
<g>
</g>
<g>
</g>
<g>
</g>
<g>
</g>
<g>
</g>
<g>
</g>
</svg>
