<?xml version="1.0" encoding="iso-8859-1"?>
<!-- Generator: Adobe Illustrator 19.0.0, SVG Export Plug-In . SVG Version: 6.00 Build 0)  -->
<svg version="1.1" id="Layer_1" xmlns="http://www.w3.org/2000/svg" xmlns:xlink="http://www.w3.org/1999/xlink" x="0px" y="0px"
	 viewBox="0 0 512.001 512.001" style="enable-background:new 0 0 512.001 512.001;" xml:space="preserve">
<g>
	<g>
		<path d="M469.711,163.187c-5.633,0-10.199,4.566-10.199,10.199v3.06c0,5.633,4.566,10.199,10.199,10.199
			c5.633,0,10.199-4.566,10.199-10.199v-3.06C479.91,167.753,475.344,163.187,469.711,163.187z"/>
	</g>
</g>
<g>
	<g>
		<path d="M477.871,300.768v-9.071h5.572c5.633,0,10.199-4.566,10.199-10.199v-36.717c0-5.633-4.566-10.199-10.199-10.199h-3.532
			v-26.518c0-5.633-4.566-10.199-10.199-10.199c-5.633,0-10.199,4.566-10.199,10.199v26.518h-6.592
			c-5.633,0-10.199,4.566-10.199,10.199v36.717c0,5.633,4.566,10.199,10.199,10.199h4.552v17.339
			c0,5.633,4.566,10.199,10.199,10.199c4.129,0,7.487,3.359,7.487,7.487c0,4.129-3.359,7.487-7.487,7.487
			c-2.797,0-7.487-0.662-7.487-5.1c0-5.633-4.566-10.199-10.199-10.199c-5.633,0-10.199,4.566-10.199,10.199
			c0,14.775,11.728,25.498,27.886,25.498c15.376,0,27.886-12.509,27.886-27.886C495.557,314.944,488.217,304.848,477.871,300.768z
			 M473.243,271.299h-10.125V254.98h10.125V271.299z"/>
	</g>
</g>
<g>
	<g>
		<path d="M485.914,129.963L171.894,35.26v-25.06C171.894,4.566,167.328,0,161.695,0h-38.757c-5.633,0-10.199,4.566-10.199,10.199
			V38.63l-93.33,93.909c-2.904,2.922-3.765,7.304-2.183,11.108c1.582,3.803,5.297,6.282,9.417,6.282h86.097V416
			c-0.003,0.005-0.006,0.009-0.009,0.013l-47.936,80.574c-1.875,3.152-1.913,7.068-0.101,10.256
			c1.813,3.188,5.199,5.158,8.866,5.158h176.868V512c4.193,0,7.959-2.566,9.492-6.469c1.534-3.902,0.522-8.346-2.55-11.201
			l-85.477-79.444V149.928h311.076c5.058,0,9.352-3.707,10.09-8.711S490.756,131.424,485.914,129.963z M112.738,129.53h-61.58
			l61.58-61.962V129.53z M112.739,491.602H91.495l21.244-35.708V491.602z M151.496,491.602h-18.359V149.928h18.359V491.602z
			 M151.496,129.53h-18.359V53.036h18.359V129.53z M151.496,32.637h-18.359V20.398h18.359V32.637z M171.894,442.734l52.578,48.867
			h-52.578V442.734z M171.894,56.566l44.192,13.327l-44.192,44.192V56.566z M185.298,129.53l47.791-47.79l47.79,47.79H185.298z
			 M303.973,123.776l-39.197-39.198l60.229,18.165L303.973,123.776z M327.067,129.53l20.104-20.104l66.658,20.104H327.067z"/>
	</g>
</g>
<g>
</g>
<g>
</g>
<g>
</g>
<g>
</g>
<g>
</g>
<g>
</g>
<g>
</g>
<g>
</g>
<g>
</g>
<g>
</g>
<g>
</g>
<g>
</g>
<g>
</g>
<g>
</g>
<g>
</g>
</svg>
